<svg height="101" viewBox="0 0 125 101" width="125" xmlns="http://www.w3.org/2000/svg"><g fill="none" fill-rule="evenodd"><path d="m0 0h125v101h-125z" fill="#fff"/><path d="m63 55c9.3510586 0 20 4.2659675 20 12v8h-40v-8c0-7.7340325 10.6489414-12 20-12zm0 4-.3637061.0039699c-.6187281.0132324-1.2987512.0595402-2.0181487.1388686l-.8807739.1110405c-.149478.0211472-.3001802.0436143-.4519313.067401l-.9216904.1585506c-5.2783373.9881398-11.3637496 3.5006138-11.3637496 7.5201694v4h32v-4l-.0156172-.3507551c-.3416501-3.8152744-6.2250404-6.2103375-11.3481324-7.1694143l-.9216904-.1585506c-.1517511-.0237867-.3024533-.0462538-.4519313-.067401l-.8807739-.1110405c-.863277-.0951941-1.6698548-.1428385-2.3818548-.1428385zm0-32c6.629139 0 12 5.370861 12 12s-5.370861 12-12 12-12-5.370861-12-12 5.370861-12 12-12zm0 4c-4.42 0-8 3.58-8 8s3.58 8 8 8 8-3.58 8-8-3.58-8-8-8z" fill="#00d2d3" fill-rule="nonzero"/></g></svg>